# xmcd CD database file
#
# Track frame offsets:
#	150
#	13448
#	27476
#	44003
#	61513
#
# Disc length: 1075 seconds
#
# Revision: 0
# Processed by: cddbd v1.5.2PL0 Copyright (c) Steve Scherf et al.
# Submitted via: CDex 1.70beta2
#
DISCID=3f043105
DTITLE=Whoa, Nellie! [CDN-cty) - Country Swing-a-Billy, Baby
DYEAR=1900
DGENRE=Country
TTITLE0=Twice the Lovin'
TTITLE1=Hurry On Down
TTITLE2=We'll Meet Again
TTITLE3=Who Walks In 
TTITLE4=Heart Trouble
EXTD=
EXTT0=
EXTT1=
EXTT2=
EXTT3=
EXTT4=
PLAYORDER=
